# Blender v2.79 (sub 0) OBJ File: 'new_axis_splitted_untitled.blend'
# www.blender.org
mtllib new_axis_bone.mtl
o new_axis_bone
v 1.000000 0.000000 0.000000
v 0.000000 0.000000 0.000000
v 0.000000 0.150000 0.000000
v 0.090909 -0.000000 0.064282
v 0.090909 0.064282 0.000000
v 0.000000 -0.000000 0.500000
v 0.090909 -0.064282 -0.000000
v 0.090909 -0.000000 0.064282
v 0.090909 -0.000000 0.064282
v 0.090909 -0.000000 0.064282
v 0.090909 -0.000000 0.064282
v 0.090909 -0.000000 0.064282
v 0.000000 0.150000 0.000000
v 0.000000 0.150000 0.000000
v 0.000000 0.000000 0.000000
v 0.000000 0.000000 0.000000
v 0.000000 0.000000 0.000000
v 0.000000 0.000000 0.000000
v 1.000000 0.000000 0.000000
v 1.000000 0.000000 0.000000
v 0.090909 0.064282 0.000000
v 0.090909 0.064282 0.000000
v 0.090909 0.064282 0.000000
v 0.000000 -0.000000 0.500000
v 0.000000 -0.000000 0.500000
v 0.090909 -0.064282 -0.000000
v 0.090909 -0.064282 -0.000000
v 0.090909 -0.064282 -0.000000
v 0.090911 0.000000 -0.020000
v 0.000000 0.000000 0.000000
v 0.090909 0.064282 0.000000
v 0.090909 -0.064282 -0.000000
v 1.000000 0.000000 0.000000
v 0.090911 0.000000 -0.020000
v 0.090911 0.000000 -0.020000
v 0.090911 0.000000 -0.020000
vt 0.551029 0.744906
vt 0.488299 0.656192
vt 0.976227 0.656192
vt 0.056177 0.229424
vt 0.056177 0.146685
vt 0.884611 0.188054
vt 0.056177 0.327098
vt 0.056177 0.244359
vt 0.884611 0.285728
vt 0.176707 0.679342
vt 0.077561 0.545770
vt 0.356658 0.545770
vt 0.062797 0.960432
vt 0.172962 0.880990
vt 0.341893 0.960432
vt 0.240615 0.866122
vt 0.077561 0.833188
vt 0.240615 0.679445
vt 0.490760 0.863522
vt 0.490759 0.754870
vt 0.978688 0.863521
vt 0.488299 0.616698
vt 0.557401 0.561066
vt 0.988177 0.616698
vt 0.134584 0.134211
vt 0.138712 0.075851
vt 0.964051 0.134211
vt 0.056177 0.070015
vt 0.142838 0.017491
vt 0.138712 0.075851
vt 0.138712 0.075851
vt 0.134584 0.134211
vt 0.056177 0.070015
vt 0.138712 0.075851
vt 0.142838 0.017491
vt 0.964051 0.134211
vn 0.0000 1.0000 0.0000
vn 0.0499 0.7062 0.7062
vn 0.0499 -0.7062 0.7062
vn -0.5773 -0.0000 0.8165
vn 0.5547 0.5883 0.5883
vn 0.0000 0.0000 -1.0000
vn -0.5773 -0.8165 -0.0000
vn 0.9591 -0.2001 0.2001
vn 0.0210 -0.2970 -0.9546
vn -0.2056 0.2907 -0.9345
vn -0.2056 -0.2907 -0.9345
vn 0.0210 0.2970 -0.9546
usemtl rgbAxisBoneMaterial
s 1
f 9/1/1 16/2/1 24/3/1
f 21/4/2 10/5/2 19/6/2
f 11/7/3 27/8/3 20/9/3
f 15/10/4 8/11/4 13/12/4
f 12/13/5 23/14/5 14/15/5
f 22/16/6 17/17/6 3/18/6
f 18/19/7 26/20/7 25/21/7
f 28/22/8 4/23/8 6/24/8
f 7/25/9 35/26/9 33/27/9
f 2/28/10 5/29/10 36/30/10
f 34/31/11 32/32/11 30/33/11
f 29/34/12 31/35/12 1/36/12
